<svg xmlns="http://www.w3.org/2000/svg" width="20" height="20" viewBox="0 0 20 20" fill="none">
  <path
    d="M10 16.6663H6.59091C5.50593 16.6663 4.46539 16.2352 3.6982 15.4681C2.931 14.7009 2.5 13.6603 2.5 12.5753V6.51474C2.5 4.25539 4.33156 2.42383 6.59091 2.42383H13.4091C15.6684 2.42383 17.5 4.25539 17.5 6.51474V9.99959"
    stroke="#6C7280" stroke-width="1.5" stroke-linecap="round" stroke-linejoin="round" />
  <path
    d="M7.08333 6.66602C7.08333 8.27685 8.38916 9.58268 10 9.58268C11.6108 9.58268 12.9167 8.27685 12.9167 6.66602"
    stroke="#6C7280" stroke-width="1.5" stroke-linecap="round" stroke-linejoin="round" />
  <path fill-rule="evenodd" clip-rule="evenodd"
    d="M17.8228 15.3291L16.378 15.9363C16.1795 16.0198 16.0215 16.1777 15.938 16.3762L15.3289 17.824C15.1923 18.1488 14.8661 18.3525 14.5142 18.3328C14.1624 18.3131 13.861 18.0742 13.7614 17.7362L12.535 13.5706C12.4489 13.278 12.5295 12.9618 12.7451 12.7461C12.9608 12.5304 13.277 12.4498 13.5696 12.5359L17.7352 13.7615C18.0733 13.861 18.3122 14.1625 18.3319 14.5144C18.3516 14.8663 18.1477 15.1925 17.8228 15.3291Z"
    stroke="#6C7280" stroke-width="1.5" stroke-linecap="round" stroke-linejoin="round" />
</svg>