<svg width="26" height="26" viewBox="0 0 26 26" fill="none" xmlns="http://www.w3.org/2000/svg">
    <g id="Group">
        <path id="Path" fill-rule="evenodd" clip-rule="evenodd"
            d="M6.49723 13.2501C6.50774 11.8714 7.63209 10.7612 9.01088 10.7681C10.3897 10.7751 11.5027 11.8966 11.4993 13.2754C11.4958 14.6542 10.3771 15.7702 8.9983 15.7702C8.33217 15.7686 7.69406 15.502 7.22482 15.0292C6.75559 14.5564 6.4938 13.9163 6.49723 13.2501V13.2501Z"
            stroke="#6C7280" stroke-width="1.5" stroke-linecap="round" stroke-linejoin="round" />
        <path id="Path_2"
            d="M15.0014 10.7491C14.9001 10.7486 14.8085 10.8092 14.7694 10.9026C14.7303 10.996 14.7513 11.1038 14.8228 11.1756C14.8942 11.2474 15.0019 11.2691 15.0955 11.2304C15.1891 11.1918 15.2502 11.1005 15.2502 10.9992C15.2507 10.933 15.2247 10.8693 15.178 10.8223C15.1312 10.7753 15.0677 10.749 15.0014 10.7491"
            stroke="#6C7280" stroke-width="1.5" stroke-linecap="round" stroke-linejoin="round" />
        <path id="Path_3"
            d="M18.1139 10.7491C18.0126 10.7486 17.921 10.8092 17.8818 10.9026C17.8427 10.996 17.8638 11.1038 17.9352 11.1756C18.0066 11.2474 18.1143 11.2691 18.2079 11.2304C18.3015 11.1918 18.3626 11.1005 18.3626 10.9992C18.3631 10.933 18.3371 10.8693 18.2904 10.8223C18.2437 10.7753 18.1801 10.749 18.1139 10.7491"
            stroke="#6C7280" stroke-width="1.5" stroke-linecap="round" stroke-linejoin="round" />
        <path id="Path_4" fill-rule="evenodd" clip-rule="evenodd"
            d="M3.99622 21.3787V20.7535C4.00025 19.3739 5.11765 18.2565 6.49726 18.2524H11.4993C12.879 18.2565 13.9963 19.3739 14.0004 20.7535V21.3787C13.9994 21.7236 13.72 22.003 13.3751 22.004H4.62148C4.27657 22.003 3.99723 21.7236 3.99622 21.3787V21.3787Z"
            stroke="#6C7280" stroke-width="1.5" stroke-linecap="round" stroke-linejoin="round" />
        <path id="Path_5"
            d="M9.27527 6.99751C11.0323 4.48256 14.2232 3.40613 17.1446 4.34277C20.0661 5.27941 22.0362 8.01048 22.0034 11.0782C21.9706 14.146 19.9425 16.8343 17.0017 17.7083"
            stroke="#6C7280" stroke-width="1.5" stroke-linecap="round" stroke-linejoin="round" />
    </g>
</svg>